<?xml version="1.0" standalone="no"?>
<!DOCTYPE svg PUBLIC "-//W3C//DTD SVG 20010904//EN"
 "http://www.w3.org/TR/2001/REC-SVG-20010904/DTD/svg10.dtd">
<svg version="1.0" xmlns="http://www.w3.org/2000/svg"
 width="500.000000pt" height="500.000000pt" viewBox="0 0 500.000000 500.000000"
 preserveAspectRatio="xMidYMid meet">

<g transform="translate(0.000000,500.000000) scale(0.100000,-0.100000)"
fill="#000000" stroke="none">
<path d="M501 3544 c0 -11 3 -14 6 -6 3 7 2 16 -1 19 -3 4 -6 -2 -5 -13z"/>
<path d="M520 3535 c0 -14 2 -25 4 -25 2 0 6 11 8 25 3 14 1 25 -3 25 -5 0 -9
-11 -9 -25z"/>
<path d="M600 3551 c35 -5 45 -10 44 -23 -2 -19 12 -25 18 -8 2 6 8 6 18 0 13
-8 12 -10 -2 -10 -15 0 -18 -10 -18 -60 0 -36 4 -60 11 -60 5 0 7 5 4 10 -3 6
-1 10 6 10 8 0 10 14 6 46 -3 34 -1 47 10 51 12 5 12 7 1 14 -11 8 -11 11 1
18 20 13 -10 19 -84 19 -58 -1 -58 -1 -15 -7z m87 -7 c-3 -3 -12 -4 -19 -1 -8
3 -5 6 6 6 11 1 17 -2 13 -5z"/>
<path d="M544 3526 c-3 -8 -4 -23 -2 -33 3 -11 6 -6 9 15 6 34 2 42 -7 18z"/>
<path d="M491 3504 c0 -11 3 -14 6 -6 3 7 2 16 -1 19 -3 4 -6 -2 -5 -13z"/>
<path d="M642 3453 c-2 -61 -12 -67 -100 -60 -31 3 -49 3 -39 0 19 -5 24 -24
5 -19 -7 1 -10 1 -5 -1 4 -3 7 -9 7 -14 0 -6 -6 -7 -12 -3 -8 4 -10 3 -5 -2 5
-5 50 -9 100 -10 51 0 86 1 80 3 -7 3 -13 9 -13 14 0 6 4 8 9 5 5 -4 16 -4 24
-1 10 4 14 24 14 73 0 44 -1 52 -4 22 -2 -25 -6 -52 -10 -60 -3 -8 -5 -18 -5
-22 1 -5 -2 -8 -7 -8 -18 0 -30 28 -34 80 l-3 55 -2 -52z m-92 -73 c0 -5 -5
-10 -11 -10 -5 0 -7 -4 -4 -10 3 -5 1 -10 -4 -10 -13 0 -13 3 -5 24 7 18 24
22 24 6z m97 -2 c0 -8 -13 -13 -36 -12 -20 1 -42 -4 -50 -10 -11 -9 -13 -8 -9
4 3 9 22 17 49 21 24 3 44 7 45 7 0 1 1 -4 1 -10z"/>
<path d="M1062 3464 c-21 -14 -22 -23 -22 -133 0 -98 3 -121 17 -132 20 -18
206 -25 246 -10 l27 11 0 129 c0 119 -2 131 -19 141 -32 17 -223 13 -249 -6z"/>
<path d="M4333 3402 l-132 -3 -3 -100 c-2 -55 0 -108 3 -117 4 -9 2 -25 -3
-35 -9 -17 -6 -18 39 -14 69 7 103 17 144 43 67 42 115 114 125 187 6 40 5 42
-17 42 -13 0 -83 -1 -156 -3z"/>
<path d="M1408 3240 c-4 -118 -9 -123 -130 -128 -93 -4 -129 -15 -92 -28 53
-19 54 -25 54 -213 0 -228 4 -221 -128 -221 -57 0 -107 -5 -122 -13 -25 -12
-56 -64 -99 -167 -13 -30 -34 -77 -46 -105 -67 -144 -95 -207 -95 -211 0 -3
-13 -33 -29 -67 -84 -181 -122 -271 -117 -283 7 -19 413 -20 437 -1 9 7 31 50
49 97 18 47 42 97 52 113 l19 27 334 0 334 0 20 -26 c11 -14 23 -35 26 -47 10
-36 58 -151 68 -164 7 -10 65 -13 228 -13 214 0 219 0 219 21 0 23 -19 67
-155 369 -54 118 -115 256 -137 305 -22 50 -50 113 -63 140 -26 58 -47 104
-105 235 -23 52 -51 114 -61 138 -10 23 -28 62 -39 87 -35 79 -57 128 -85 188
l-26 57 -154 0 -153 0 -4 -90z m262 -111 l0 -50 -47 3 c-46 3 -48 4 -51 36 -5
53 2 62 53 62 l45 0 0 -51z m-222 -131 c-3 -42 -4 -43 -38 -43 -34 0 -35 1
-38 43 l-3 42 41 0 41 0 -3 -42z m62 -119 c0 -6 24 -70 54 -142 94 -230 125
-311 120 -319 -3 -4 -88 -8 -190 -8 -178 0 -184 1 -184 20 0 18 64 184 106
275 7 17 28 65 45 108 27 68 49 98 49 66z"/>
<path d="M2279 3306 c-46 -31 -71 -86 -93 -201 -10 -49 -24 -119 -31 -155 -26
-123 -45 -230 -45 -254 0 -13 14 -55 31 -93 17 -37 60 -133 96 -213 36 -80 75
-167 87 -195 l23 -49 16 89 c47 259 73 414 84 493 3 23 9 45 13 47 5 3 19 -41
33 -97 132 -536 199 -784 222 -813 30 -40 102 -75 155 -75 51 0 121 32 146 68
26 35 36 65 69 192 15 58 33 125 40 150 7 25 25 92 40 150 15 58 45 168 65
245 21 77 41 155 45 173 8 37 25 43 25 9 0 -46 42 -213 62 -247 26 -44 69 -80
122 -102 34 -14 79 -17 282 -17 311 -1 294 8 294 -165 0 -112 -2 -125 -21
-142 -19 -18 -44 -19 -333 -24 -304 -5 -312 -6 -358 -29 -88 -45 -150 -130
-163 -223 l-7 -48 253 0 c734 -1 781 0 818 17 47 22 96 76 110 123 15 52 15
599 -1 652 -6 22 -28 57 -49 78 -61 63 -102 70 -389 70 l-247 0 -23 25 c-19
20 -31 64 -66 246 -24 122 -52 238 -62 258 -31 60 -81 81 -190 81 -107 0 -150
-15 -186 -64 -23 -32 -35 -68 -81 -246 -15 -58 -33 -125 -40 -150 -7 -25 -25
-92 -40 -150 -15 -58 -33 -125 -40 -150 -7 -25 -17 -63 -23 -85 -36 -134 -47
-164 -53 -153 -4 7 -21 67 -39 133 -17 66 -41 154 -52 195 -11 41 -33 125 -50
185 -16 61 -33 126 -38 145 -29 119 -69 252 -84 274 -31 48 -84 66 -193 66
-88 0 -102 -3 -134 -24z"/>
<path d="M892 2998 c-8 -8 -12 -53 -12 -135 0 -111 2 -123 19 -133 11 -5 69
-10 130 -10 144 0 141 -3 141 149 0 78 -4 121 -12 129 -8 8 -52 12 -133 12
-81 0 -125 -4 -133 -12z"/>
<path d="M643 1545 l-41 -105 28 0 c16 0 30 7 34 15 3 10 19 15 46 15 29 0 40
-4 40 -15 0 -10 10 -15 30 -15 l30 0 -15 36 c-8 20 -27 67 -42 105 -21 55 -31
69 -48 69 -17 0 -28 -18 -62 -105z m83 -32 c-2 -3 -13 -3 -23 -1 -17 3 -18 7
-10 38 l10 35 14 -34 c8 -18 12 -35 9 -38z"/>
<path d="M890 1545 l0 -105 25 0 25 0 0 105 0 105 -25 0 -25 0 0 -105z"/>
<path d="M1190 1545 l0 -105 25 0 c24 0 25 2 26 73 1 39 3 63 6 52 35 -148 59
-165 89 -60 10 36 22 65 25 65 4 0 4 -29 1 -65 -5 -65 -5 -65 22 -65 l26 0 0
105 0 105 -33 0 c-33 0 -34 -2 -50 -60 -10 -33 -21 -60 -26 -60 -9 0 -23 36
-35 93 -6 23 -11 27 -41 27 l-35 0 0 -105z"/>
<path d="M1510 1545 l0 -105 54 0 c45 0 55 3 59 19 4 16 -1 20 -26 23 -45 4
-51 38 -8 38 26 0 31 4 31 25 0 21 -5 25 -30 25 -20 0 -30 5 -30 15 0 11 11
15 36 15 31 0 35 3 32 23 -3 19 -10 22 -60 25 l-58 3 0 -106z"/>
<path d="M1720 1545 l0 -105 61 0 c54 0 64 3 90 29 21 21 29 39 29 65 0 77
-44 116 -129 116 l-51 0 0 -105z m116 38 c29 -39 1 -103 -46 -103 -18 0 -20 7
-20 60 0 58 1 60 26 60 15 0 33 -8 40 -17z"/>
<path d="M1990 1545 l0 -105 25 0 25 0 0 105 0 105 -25 0 -25 0 0 -105z"/>
<path d="M2204 1633 c-3 -10 -21 -55 -40 -100 -19 -45 -34 -84 -34 -87 0 -3
14 -6 30 -6 20 0 30 5 30 15 0 11 11 15 39 15 25 0 41 -5 45 -15 5 -15 56 -22
56 -7 0 4 -18 50 -39 102 -30 75 -43 96 -60 98 -13 2 -23 -3 -27 -15z m40 -79
c11 -29 6 -44 -15 -44 -15 0 -19 4 -15 16 3 9 6 22 6 30 0 19 16 18 24 -2z"/>
<path d="M2577 1632 c-36 -39 -17 -83 46 -110 30 -13 35 -30 11 -39 -10 -4
-20 0 -26 10 -10 19 -43 23 -53 7 -10 -16 14 -50 42 -61 37 -14 91 6 99 36 9
38 -4 63 -46 82 -22 10 -40 23 -40 30 0 17 23 29 28 15 2 -7 17 -12 33 -12 23
0 27 3 22 18 -15 43 -86 58 -116 24z"/>
<path d="M2813 1620 c-36 -36 -46 -74 -28 -115 20 -47 48 -67 99 -67 53 -1 88
19 106 61 45 109 -93 203 -177 121z m125 -45 c17 -36 15 -52 -8 -75 -54 -54
-126 12 -90 81 8 14 21 19 49 19 31 0 40 -5 49 -25z"/>
<path d="M3090 1545 l0 -105 60 0 c53 0 60 2 60 19 0 15 -8 21 -32 23 l-33 3
-3 83 c-3 80 -3 82 -27 82 -25 0 -25 0 -25 -105z"/>
<path d="M3280 1568 c1 -52 5 -89 14 -100 18 -24 57 -37 89 -31 44 9 57 37 57
130 0 82 0 83 -25 83 -25 0 -25 -1 -25 -80 0 -63 -3 -82 -15 -86 -32 -12 -45
15 -45 92 0 72 -1 74 -25 74 -25 0 -25 -1 -25 -82z"/>
<path d="M3527 1643 c-15 -15 -7 -43 13 -43 18 0 20 -7 20 -80 l0 -80 30 0 30
0 0 80 c0 73 2 80 20 80 15 0 20 7 20 25 0 24 -2 25 -63 25 -35 0 -67 -3 -70
-7z"/>
<path d="M3747 1643 c-4 -3 -7 -51 -7 -105 l0 -99 28 3 c15 2 26 6 25 11 -2 4
-3 50 -3 102 0 85 -2 95 -18 95 -10 0 -22 -3 -25 -7z"/>
<path d="M3920 1621 c-50 -50 -52 -112 -4 -154 68 -59 160 -34 182 49 12 43 4
71 -29 104 -25 24 -39 30 -76 30 -36 0 -50 -6 -73 -29z m120 -40 c37 -70 -37
-135 -90 -79 -24 26 -25 46 -4 76 20 29 79 31 94 3z"/>
<path d="M4190 1545 c0 -105 0 -105 25 -105 23 0 24 4 27 63 l3 62 40 -62 c30
-47 46 -63 62 -63 22 0 23 3 23 106 0 104 0 105 -22 102 -21 -3 -23 -8 -22
-60 1 -32 -2 -58 -6 -58 -4 0 -25 27 -46 60 -29 44 -45 60 -61 60 -22 0 -23
-3 -23 -105z"/>
</g>
</svg>
