<svg version="1.1" id="Layer_1" xmlns="http://www.w3.org/2000/svg" xmlns:xlink="http://www.w3.org/1999/xlink" x="0px" y="0px"
	 width="100%" viewBox="0 0 3833 3833" enable-background="new 0 0 3833 3833" xml:space="preserve">
<path fill="#FFFFFF" opacity="1.000000" stroke="none" 
	d="
M1760.000000,3836.000000 
	C1173.333374,3836.000000 587.666687,3836.000000 2.000000,3836.000000 
	C2.000000,2558.000000 2.000000,1280.000000 2.000000,2.000000 
	C1280.000000,2.000000 2558.000000,2.000000 3836.000000,2.000000 
	C3836.000000,1280.000000 3836.000000,2558.000000 3836.000000,3836.000000 
	C3144.333252,3836.000000 2452.666748,3836.000000 1760.000000,3836.000000 
M2795.620117,1402.249878 
	C2798.628174,1414.016357 2801.636475,1425.782715 2804.699463,1437.763184 
	C2824.842285,1437.763184 2844.424316,1437.763184 2865.862793,1438.036499 
	C2887.911865,1437.945312 2909.960693,1437.854126 2933.865234,1438.038574 
	C2961.248535,1437.947998 2988.632080,1437.857422 3017.870850,1438.039185 
	C3052.585938,1437.948364 3087.301025,1437.857422 3123.871094,1438.041260 
	C3131.810547,1438.067871 3139.750000,1438.140259 3147.689209,1438.112793 
	C3175.798584,1438.015381 3203.908203,1437.883789 3233.870850,1438.048584 
	C3253.144043,1438.556519 3272.358643,1438.131470 3291.286377,1433.939087 
	C3310.390381,1429.708008 3329.095947,1424.326904 3347.482666,1413.984863 
	C3430.362549,1371.429199 3468.971436,1283.602417 3463.826660,1220.304443 
	C3450.251221,1220.304443 3436.618896,1220.254272 3422.987061,1220.314941 
	C3395.999023,1220.435059 3369.010742,1220.616455 3340.185303,1220.377563 
	C3327.613770,1220.353882 3315.041748,1220.264160 3302.470459,1220.320557 
	C3278.991211,1220.425903 3255.512451,1220.616333 3230.195557,1220.373657 
	C3216.963867,1220.347290 3203.732178,1220.250854 3190.500732,1220.309937 
	C3167.685791,1220.411865 3144.871582,1220.610474 3120.212402,1220.371338 
	C3106.649414,1220.341553 3093.086182,1220.236694 3079.523438,1220.298828 
	C3057.700439,1220.398682 3035.877686,1220.608521 3012.209717,1220.377075 
	C2985.487061,1220.510132 2958.764160,1220.643311 2930.197266,1220.384399 
	C2908.143066,1220.510742 2886.088623,1220.637085 2862.189697,1220.379517 
	C2840.807861,1220.501465 2819.426025,1220.623413 2796.198242,1220.359619 
	C2749.061279,1220.359619 2701.924072,1220.359619 2654.203369,1220.359619 
	C2655.247070,1221.181885 2655.654785,1221.704712 2656.179199,1221.881714 
	C2658.695557,1222.731445 2661.248291,1223.474121 2663.780029,1224.279419 
	C2689.578857,1232.486328 2712.413574,1245.651855 2732.079346,1264.392212 
	C2757.723145,1288.829102 2773.276123,1318.767944 2781.888672,1352.818359 
	C2785.956543,1368.901001 2791.008789,1384.734619 2795.620117,1402.249878 
M3259.718994,2640.157715 
	C3265.209717,2648.887939 3270.709229,2657.612793 3276.189209,2666.350098 
	C3289.273926,2687.211182 3302.287842,2708.117432 3315.517090,2728.886719 
	C3316.969727,2731.166992 3319.563721,2734.177490 3321.754639,2734.284912 
	C3332.911865,2734.833496 3344.110107,2734.538086 3355.114258,2734.538086 
	C3355.114258,2679.377441 3355.114258,2625.570557 3355.114258,2571.388184 
	C3341.743896,2571.388184 3328.955811,2571.388184 3316.053955,2571.388184 
	C3316.053955,2588.204346 3316.052734,2604.455566 3316.054443,2620.706543 
	C3316.055908,2636.969238 3316.869873,2653.249023 3315.550293,2669.632568 
	C3303.766357,2652.274170 3292.979980,2634.780029 3282.207275,2617.277344 
	C3273.835449,2603.675293 3265.579346,2590.000244 3257.023926,2576.514893 
	C3255.572266,2574.227051 3252.943604,2571.242676 3250.727295,2571.128418 
	C3239.901611,2570.570068 3229.031494,2570.875732 3218.049316,2570.875732 
	C3218.049316,2626.085938 3218.049316,2679.957520 3218.049316,2734.114746 
	C3231.351318,2734.114746 3244.245605,2734.114746 3257.721924,2734.114746 
	C3257.721924,2730.723633 3257.747559,2727.776611 3257.717773,2724.829834 
	C3257.435791,2696.875488 3257.145020,2668.920898 3257.706543,2640.257812 
	C3257.975098,2640.004639 3258.243408,2639.751709 3259.718994,2640.157715 
M2186.862305,2464.252197 
	C2199.134033,2464.280518 2211.528076,2465.445801 2223.656982,2464.143555 
	C2280.593018,2458.029785 2329.107178,2416.496094 2343.828613,2361.402832 
	C2391.335449,2183.614014 2438.643555,2005.771606 2486.036133,1827.952026 
	C2498.887451,1779.732788 2511.766602,1731.520874 2524.961426,1682.075195 
	C2526.123047,1685.288818 2527.186768,1687.317871 2527.585449,1689.470093 
	C2535.770508,1733.653931 2544.211914,1777.794312 2551.902100,1822.064819 
	C2558.375000,1859.328247 2572.437744,1893.015259 2597.182129,1921.747070 
	C2635.143555,1965.825806 2683.420166,1988.792969 2741.633057,1989.888306 
	C2774.285645,1990.502808 2806.958008,1990.100464 2839.621338,1990.108521 
	C2912.948975,1990.126587 2986.276855,1990.044067 3059.604492,1990.149170 
	C3090.009033,1990.192749 3115.367188,2012.122437 3116.170166,2042.129395 
	C3117.453369,2090.079590 3116.794922,2138.091797 3116.349609,2186.072021 
	C3116.202637,2201.900146 3108.350830,2214.749756 3096.319336,2224.836670 
	C3085.134277,2234.213867 3072.070557,2238.042725 3057.484619,2238.030518 
	C2928.827881,2237.922607 2800.170654,2237.845215 2671.514648,2238.135254 
	C2656.602051,2238.169189 2641.512451,2239.424072 2626.815186,2241.931885 
	C2532.365479,2258.048584 2449.700928,2337.646240 2440.377441,2447.607666 
	C2439.575684,2457.062256 2440.271240,2466.644043 2440.271240,2476.539307 
	C2444.579590,2476.539307 2447.898926,2476.539551 2451.218506,2476.539551 
	C2695.199951,2476.539795 2939.181396,2476.549316 3183.162842,2476.498779 
	C3191.818359,2476.497070 3200.551025,2476.528809 3209.117676,2475.481689 
	C3292.359375,2465.305908 3355.127930,2395.947510 3355.510254,2312.007324 
	C3356.111084,2180.020020 3356.036377,2048.026855 3355.472900,1916.039185 
	C3355.268066,1868.047119 3336.697754,1827.133911 3301.118164,1794.698242 
	C3268.965332,1765.386841 3230.723145,1751.467163 3187.139893,1751.534180 
	C3077.148682,1751.703369 2967.156738,1751.638550 2857.165283,1751.561646 
	C2818.030029,1751.534180 2787.359375,1726.461060 2779.664795,1688.292236 
	C2775.192139,1666.106201 2771.043213,1643.854126 2766.839844,1621.614502 
	C2753.116211,1549.004639 2739.395264,1476.394287 2725.760498,1403.767700 
	C2721.872803,1383.060181 2716.596680,1362.834106 2706.411377,1344.201660 
	C2683.977783,1303.161743 2649.571777,1281.947632 2602.576416,1281.815186 
	C2571.579102,1281.727783 2540.574951,1282.187256 2509.584961,1281.709595 
	C2458.869385,1280.928223 2405.592285,1315.255005 2390.082520,1373.163452 
	C2351.255859,1518.129395 2312.557617,1663.129761 2273.809814,1808.116943 
	C2252.416016,1888.167725 2231.033691,1968.221436 2209.608154,2048.263672 
	C2208.832275,2051.161621 2207.650879,2053.951172 2205.969482,2058.763916 
	C2204.329834,2053.765869 2203.291748,2051.050537 2202.545410,2048.257812 
	C2192.317139,2010.000854 2182.158203,1971.725464 2171.926270,1933.469604 
	C2121.972656,1746.700684 2072.063721,1559.919556 2021.999756,1373.180176 
	C2007.412109,1318.768188 1958.957886,1281.906616 1902.557373,1281.808350 
	C1871.559814,1281.754272 1840.562012,1281.843262 1809.564453,1281.787231 
	C1767.386475,1281.711060 1735.340942,1299.981567 1712.828247,1335.307861 
	C1700.523804,1354.615723 1692.433838,1375.781128 1687.950195,1398.112549 
	C1678.974854,1442.816040 1670.582764,1487.637451 1662.063232,1532.431641 
	C1647.075073,1611.236206 1632.244507,1690.070923 1617.096069,1768.844604 
	C1615.893188,1775.100464 1616.481445,1780.341064 1619.061279,1786.108521 
	C1679.002197,1920.103760 1738.787720,2054.168457 1798.619507,2188.212402 
	C1799.953979,2191.202148 1801.492676,2194.100586 1804.003296,2199.216309 
	C1832.925903,2030.444580 1861.469604,1863.883301 1890.013306,1697.322144 
	C1892.229004,1700.858032 1893.239502,1704.337646 1894.127563,1707.848145 
	C1948.807617,1923.991333 2003.520142,2140.126221 2058.089111,2356.297363 
	C2064.208008,2380.536865 2075.973145,2401.356445 2093.622314,2418.888672 
	C2119.050293,2444.148193 2149.709717,2458.947754 2186.862305,2464.252197 
M730.999756,2466.114258 
	C747.629150,2465.427979 764.294739,2465.207520 780.877258,2463.918945 
	C796.231445,2462.725342 807.896484,2454.897705 814.946838,2441.027100 
	C819.012390,2433.028564 822.795593,2424.854492 826.169373,2416.541748 
	C839.563843,2383.539307 852.594299,2350.388428 866.109924,2317.436279 
	C869.757507,2308.543213 874.241882,2299.926270 879.057312,2291.595947 
	C884.698181,2281.837402 893.761963,2276.204346 904.718872,2274.197021 
	C912.222900,2272.822266 919.904297,2271.834961 927.518921,2271.746338 
	C958.179810,2271.388916 988.845520,2271.404297 1019.509521,2271.362061 
	C1128.501831,2271.211914 1237.494263,2271.054199 1346.486572,2271.018555 
	C1359.473755,2271.014404 1372.470337,2271.553955 1385.446289,2272.178711 
	C1404.427490,2273.092529 1418.354980,2281.754150 1426.032593,2299.565186 
	C1428.667358,2305.677490 1431.523804,2311.698730 1434.005493,2317.871338 
	C1448.035156,2352.765137 1461.883911,2387.732666 1476.028076,2422.579834 
	C1479.398315,2430.883301 1483.331299,2439.002930 1487.597290,2446.886963 
	C1492.996582,2456.865479 1501.530518,2462.950439 1512.957153,2464.210938 
	C1521.216064,2465.122803 1529.533447,2466.019287 1537.825928,2466.031982 
	C1624.157227,2466.162598 1710.489014,2466.117432 1796.820557,2466.099609 
	C1801.485352,2466.098633 1806.165771,2466.107422 1810.810669,2465.747314 
	C1815.783203,2465.361572 1820.785278,2464.852539 1825.663330,2463.854248 
	C1837.667358,2461.397705 1841.911865,2455.189453 1839.638916,2442.964600 
	C1838.611572,2437.438965 1836.911255,2431.956299 1834.833984,2426.725098 
	C1830.044678,2414.663574 1825.064209,2402.667236 1819.768433,2390.820068 
	C1663.818970,2041.944580 1507.824707,1693.089233 1351.820312,1344.238403 
	C1344.346558,1327.526367 1336.595947,1310.937256 1329.199341,1294.191650 
	C1324.300903,1283.101685 1315.801758,1278.130615 1303.969727,1278.185303 
	C1302.637085,1278.191528 1301.304077,1278.114746 1299.971313,1278.114624 
	C1237.639160,1278.110229 1175.307007,1278.065186 1112.975098,1278.181763 
	C1107.012817,1278.192993 1100.983521,1278.826050 1095.107422,1279.863037 
	C1086.372437,1281.404419 1082.985474,1284.978394 1081.753052,1293.591675 
	C1081.000977,1298.848389 1080.652588,1304.203857 1080.631714,1309.517090 
	C1080.524170,1336.849365 1080.668091,1364.182861 1080.509644,1391.514771 
	C1080.477173,1397.135498 1080.265625,1402.939941 1078.878540,1408.336304 
	C1072.802368,1431.973022 1052.500854,1447.400635 1027.259888,1447.535645 
	C990.595032,1447.731934 953.928284,1447.587891 917.262390,1447.588989 
	C913.680847,1447.588989 910.099243,1447.588989 906.591980,1447.588989 
	C902.898010,1455.945679 899.602417,1463.401123 896.065308,1471.402954 
	C898.720032,1471.603882 900.048035,1471.858398 901.356323,1471.780762 
	C926.940979,1470.266357 954.896912,1492.389282 954.709290,1525.836426 
	C954.288574,1600.832642 954.370789,1675.833496 954.674133,1750.830811 
	C954.805603,1783.342285 927.201355,1805.121582 900.646484,1804.306274 
	C872.007385,1803.427124 843.318970,1803.943237 814.654907,1804.182617 
	C801.677307,1804.291016 788.695496,1805.018311 775.735291,1805.793823 
	C759.243835,1806.780762 746.427917,1814.431396 738.096558,1828.661987 
	C732.221436,1838.697388 726.695312,1849.009033 721.924438,1859.607544 
	C673.827209,1966.455933 625.906921,2073.384033 577.960144,2180.300293 
	C542.681213,2258.968506 507.380981,2337.627197 472.262909,2416.367188 
	C468.755920,2424.230469 465.873901,2432.479736 463.714447,2440.812500 
	C460.106873,2454.732910 464.766937,2461.547119 479.147919,2463.863525 
	C486.685364,2465.077637 494.380859,2465.866455 502.007416,2465.885742 
	C577.671326,2466.077148 653.335693,2466.067139 730.999756,2466.114258 
M674.322510,1645.000000 
	C674.321960,1667.648926 674.201721,1690.298828 674.353577,1712.946655 
	C674.513489,1736.799316 689.431152,1751.773438 712.971985,1751.800659 
	C763.265930,1751.859009 813.560120,1751.864136 863.854065,1751.798828 
	C887.192017,1751.768555 902.089172,1737.085327 902.137817,1713.894287 
	C902.244080,1663.267456 902.243958,1612.640015 902.136902,1562.013184 
	C902.088013,1538.901978 887.097961,1524.155029 863.802673,1524.125000 
	C813.508728,1524.060181 763.214600,1524.089355 712.920654,1524.137817 
	C709.614197,1524.140991 706.223206,1524.249634 703.016174,1524.961060 
	C685.511414,1528.845215 674.527710,1542.880615 674.377258,1562.063599 
	C674.165588,1589.040894 674.323059,1616.021118 674.322510,1645.000000 
M1000.871765,1394.609741 
	C1019.505127,1388.955200 1028.525879,1377.239746 1028.553101,1358.110962 
	C1028.625610,1307.143066 1028.149658,1256.169800 1028.780029,1205.209473 
	C1029.047607,1183.575195 1010.869202,1167.622681 991.786316,1167.801758 
	C940.489746,1168.283325 889.183777,1168.221436 837.885559,1167.834717 
	C818.788513,1167.690796 800.584412,1183.697510 801.334473,1204.569092 
	C801.824646,1218.209595 801.424194,1231.881958 801.424255,1245.540039 
	C801.424377,1283.182983 801.539917,1320.826660 801.356506,1358.468628 
	C801.300903,1369.875488 805.091309,1379.311890 813.605347,1386.797485 
	C821.539856,1393.773315 831.046448,1395.879272 841.394104,1395.857544 
	C890.363098,1395.754395 939.332458,1395.825439 988.301697,1395.778320 
	C991.950073,1395.774780 995.598022,1395.329590 1000.871765,1394.609741 
M375.712250,1125.086792 
	C375.404236,1132.736572 374.814117,1140.387207 374.841736,1148.035767 
	C374.920990,1170.014893 375.306366,1191.992676 375.461212,1213.971680 
	C375.564514,1228.630615 375.824921,1243.302490 375.331757,1257.945679 
	C375.086914,1265.214966 377.798279,1270.584595 383.686584,1273.698608 
	C388.833984,1276.420776 394.791290,1279.117065 400.420746,1279.180908 
	C441.062683,1279.641235 481.712433,1279.504517 522.359131,1279.372192 
	C531.487366,1279.342407 539.102295,1275.528076 544.938416,1268.362793 
	C550.335510,1261.736816 551.235535,1253.899658 551.231384,1245.768311 
	C551.212280,1208.452881 551.232056,1171.137451 551.206360,1133.822021 
	C551.204529,1131.164917 551.126770,1128.484863 550.782532,1125.854858 
	C548.683472,1109.818481 538.021179,1100.081299 521.802612,1100.020020 
	C481.489197,1099.867920 441.174469,1099.869263 400.861023,1100.019409 
	C384.797546,1100.079224 377.442444,1107.194336 375.712250,1125.086792 
M416.664581,1483.712891 
	C416.664734,1491.044434 416.664978,1498.375854 416.665070,1505.707397 
	C416.665344,1530.034790 416.556915,1554.362671 416.698120,1578.689209 
	C416.825500,1600.633667 426.048584,1609.819580 447.666718,1609.841797 
	C479.992035,1609.875244 512.317566,1609.915161 544.642700,1609.826172 
	C563.827148,1609.773438 573.470093,1600.062378 573.534424,1580.822510 
	C573.616821,1556.162231 573.556824,1531.501465 573.555359,1506.840820 
	C573.554810,1497.509888 573.863403,1488.165405 573.469055,1478.850952 
	C572.852661,1464.293335 563.548950,1453.940674 550.105835,1453.820923 
	C513.451599,1453.494263 476.791199,1453.549316 440.135895,1453.817871 
	C428.639130,1453.902100 420.185913,1461.652100 417.785339,1473.000732 
	C417.168823,1475.915283 417.028351,1478.930664 416.664581,1483.712891 
M962.230347,2648.923340 
	C970.371826,2677.327393 978.513306,2705.731201 986.674988,2734.205811 
	C996.169800,2734.205811 1005.077454,2734.205811 1014.674561,2734.205811 
	C1025.668091,2695.645996 1036.621094,2657.229004 1047.573975,2618.811768 
	C1048.016724,2618.950928 1048.459351,2619.090088 1048.902100,2619.229248 
	C1048.902100,2638.349365 1048.902100,2657.469727 1048.902100,2676.589844 
	C1048.902100,2695.714844 1048.902100,2714.839844 1048.902100,2734.088867 
	C1061.712158,2734.088867 1073.917847,2734.088867 1086.046631,2734.088867 
	C1087.914429,2721.475830 1087.420166,2578.462158 1085.540039,2571.405762 
	C1068.037231,2571.405762 1050.522827,2571.405762 1032.777588,2571.405762 
	C1022.290527,2606.517090 1011.942749,2641.162354 1001.594971,2675.807373 
	C1001.070068,2675.847900 1000.545227,2675.888184 1000.020325,2675.928711 
	C989.440186,2641.053467 978.860107,2606.178467 968.308411,2571.397217 
	C949.971191,2571.397217 932.472046,2571.397217 914.562256,2571.397217 
	C914.562256,2625.832764 914.562256,2679.694580 914.562256,2734.053711 
	C927.223877,2734.053711 939.718018,2734.053711 952.442017,2734.053711 
	C952.442017,2695.503174 952.442017,2657.467285 952.442017,2619.431396 
	C952.844360,2619.325439 953.246643,2619.219482 953.648987,2619.113525 
	C956.396851,2628.521484 959.144714,2637.929199 962.230347,2648.923340 
M3089.582764,2571.295898 
	C3078.922119,2568.072510 3067.981445,2567.347656 3056.973389,2568.179443 
	C2988.847168,2573.326416 2960.435303,2647.278076 2989.624268,2696.125977 
	C3021.401123,2749.304932 3099.611816,2752.291016 3135.869141,2702.080322 
	C3164.520020,2662.403564 3154.839111,2592.449951 3089.582764,2571.295898 
M2228.016113,2737.371582 
	C2230.310303,2736.970947 2232.614258,2736.618408 2234.897461,2736.162842 
	C2302.859375,2722.606445 2322.833496,2645.483887 2285.657959,2600.166748 
	C2262.815674,2572.322510 2232.778076,2563.143555 2198.011230,2570.019531 
	C2167.031006,2576.146973 2145.902588,2595.170898 2136.169678,2624.798584 
	C2126.099121,2655.454834 2129.678711,2684.725098 2152.512207,2709.523926 
	C2172.351318,2731.070557 2197.265869,2739.725830 2228.016113,2737.371582 
M1452.929077,2693.765137 
	C1460.212158,2676.408936 1461.653687,2658.166992 1459.541260,2639.823730 
	C1455.660156,2606.121582 1433.262573,2573.810547 1388.472046,2571.822510 
	C1366.533691,2570.848389 1344.539185,2571.123779 1322.569214,2570.917236 
	C1321.359619,2570.906006 1320.142822,2571.665771 1319.156982,2571.991455 
	C1319.156982,2626.202148 1319.156982,2679.993164 1319.156982,2733.568604 
	C1344.994507,2733.568604 1370.356812,2735.100586 1395.445801,2733.137939 
	C1420.545288,2731.174805 1441.244507,2719.617676 1452.929077,2693.765137 
M2601.355713,2576.241699 
	C2601.357178,2605.218262 2601.450684,2634.195312 2601.296143,2663.171143 
	C2601.257324,2670.476318 2600.945801,2677.857422 2599.835449,2685.061035 
	C2598.313965,2694.930908 2592.697510,2699.690674 2583.125977,2700.565430 
	C2572.270264,2701.557617 2564.994873,2697.649902 2562.080078,2687.943848 
	C2560.391113,2682.320068 2559.833252,2676.182373 2559.790283,2670.268311 
	C2559.571777,2640.294434 2559.702637,2610.317627 2559.667236,2580.342041 
	C2559.663818,2577.460938 2559.359131,2574.580322 2559.184814,2571.532227 
	C2545.069824,2571.532227 2531.639893,2571.532227 2517.649902,2571.532227 
	C2517.649902,2592.523926 2517.615967,2612.814453 2517.659912,2633.104980 
	C2517.696533,2650.089355 2517.327637,2667.093994 2518.031006,2684.052979 
	C2519.024902,2708.004150 2534.197021,2726.970703 2557.034424,2734.267578 
	C2567.339600,2737.560303 2577.903809,2738.584229 2588.600098,2737.553711 
	C2615.753662,2734.938477 2636.054932,2717.924072 2641.132812,2693.185791 
	C2642.527588,2686.390869 2642.934326,2679.298340 2642.976807,2672.337402 
	C2643.165771,2641.363770 2643.072266,2610.387939 2643.031250,2579.413086 
	C2643.027832,2576.848145 2642.658203,2574.283691 2642.392578,2570.870605 
	C2629.607422,2570.870605 2617.360352,2570.765137 2605.120850,2571.028076 
	C2603.851807,2571.055420 2602.629639,2573.272705 2601.355713,2576.241699 
M1642.780151,2705.665527 
	C1639.154419,2714.854736 1635.528687,2724.044189 1631.596802,2734.009521 
	C1646.938843,2734.009521 1661.404053,2734.009521 1676.568359,2734.009521 
	C1679.408569,2726.503174 1682.301880,2718.856445 1685.032593,2711.639648 
	C1704.541870,2711.639648 1723.046265,2711.639648 1741.479858,2711.639648 
	C1744.240967,2719.456543 1746.777344,2726.636963 1749.343506,2733.901855 
	C1764.428345,2733.901855 1779.177734,2733.901855 1794.797607,2733.901855 
	C1772.982422,2679.075928 1751.516968,2625.128906 1730.164917,2571.466797 
	C1718.438965,2571.466797 1707.617920,2571.466797 1696.631714,2571.466797 
	C1678.776855,2616.064941 1661.117554,2660.174805 1642.780151,2705.665527 
M508.001099,2620.839600 
	C492.978607,2658.349854 477.956146,2695.860352 462.702240,2733.948486 
	C478.684814,2733.948486 493.178650,2733.948486 507.617554,2733.948486 
	C510.705963,2726.057373 513.587219,2718.695801 516.333740,2711.678223 
	C535.680847,2711.678223 554.173279,2711.678223 572.668091,2711.678223 
	C575.514893,2719.708496 578.135498,2727.101074 580.536255,2733.873047 
	C596.176147,2733.873047 610.619019,2733.873047 625.932739,2733.873047 
	C604.096191,2679.000244 582.613892,2625.017822 561.212158,2571.237793 
	C549.686340,2571.237793 539.117676,2571.237793 528.013977,2571.237793 
	C521.464233,2587.392822 514.979309,2603.388428 508.001099,2620.839600 
M2044.145508,2733.602295 
	C2045.052490,2733.182129 2045.956177,2732.755371 2046.866821,2732.343262 
	C2063.897217,2724.631836 2072.870117,2711.499756 2074.392334,2692.805908 
	C2075.993896,2673.134521 2068.390625,2658.531738 2051.609131,2648.496094 
	C2049.041260,2646.960205 2046.448853,2645.434082 2043.747070,2644.159668 
	C2036.229980,2640.613281 2028.567139,2637.367432 2021.123291,2633.677246 
	C2016.373291,2631.322021 2011.511963,2628.885986 2007.406738,2625.603027 
	C2000.247681,2619.878174 2001.458496,2608.182617 2009.138428,2604.583496 
	C2017.250122,2600.781982 2026.160889,2604.068115 2029.986084,2612.320801 
	C2030.948608,2614.397217 2031.743286,2616.551514 2032.494263,2618.376465 
	C2046.194214,2618.376465 2059.400635,2618.376465 2073.144043,2618.376465 
	C2072.628906,2602.016357 2067.546143,2588.570312 2054.423340,2578.980469 
	C2031.348999,2562.117188 1994.645020,2564.852783 1974.166382,2584.868652 
	C1955.465698,2603.146729 1956.367310,2632.862793 1976.704834,2649.219238 
	C1983.096436,2654.359863 1990.736938,2658.064453 1998.107422,2661.836182 
	C2004.900269,2665.312012 2012.166504,2667.850098 2019.087646,2671.092773 
	C2022.367188,2672.628906 2025.755493,2674.390869 2028.354492,2676.836670 
	C2036.101929,2684.127686 2033.306885,2698.533203 2023.796387,2701.680664 
	C2014.672363,2704.700684 2006.100586,2700.925537 2002.498657,2691.921143 
	C2001.047485,2688.293213 2000.411743,2684.339355 1999.471313,2680.784668 
	C1985.687500,2680.784668 1972.187744,2680.784668 1958.757080,2680.784668 
	C1957.167480,2709.677734 1971.732788,2729.810547 1998.257935,2735.734375 
	C2013.147095,2739.059570 2027.999756,2738.810547 2044.145508,2733.602295 
M1179.130859,2570.822021 
	C1172.948975,2570.911621 1166.766968,2571.001221 1160.633545,2571.090332 
	C1160.633545,2626.166260 1160.633545,2679.974365 1160.633545,2734.052734 
	C1190.966187,2734.052734 1220.806152,2734.052734 1250.685791,2734.052734 
	C1250.685791,2721.768555 1250.685791,2710.018311 1250.685791,2697.502930 
	C1233.748657,2697.502930 1217.551636,2697.502930 1201.047363,2697.502930 
	C1201.047363,2687.959717 1201.047363,2679.221191 1201.047363,2669.596680 
	C1217.559326,2669.596680 1233.389893,2669.596680 1249.417236,2669.596680 
	C1249.417236,2657.190186 1249.417236,2645.680908 1249.417236,2633.225586 
	C1233.136841,2633.225586 1217.261353,2633.225586 1200.886719,2633.225586 
	C1200.886719,2624.473877 1200.886719,2616.671143 1200.886719,2607.789062 
	C1217.811890,2607.789062 1234.248169,2607.789062 1251.433594,2607.789062 
	C1251.433594,2600.797119 1251.478760,2594.860352 1251.420898,2588.924561 
	C1251.363892,2583.090088 1251.202271,2577.257080 1251.074707,2570.822266 
	C1226.956299,2570.822266 1204.023926,2570.822266 1179.130859,2570.822021 
M695.877380,1384.062378 
	C707.052795,1381.229126 711.674011,1375.782959 711.735962,1364.557251 
	C711.862793,1341.596558 711.859985,1318.634155 711.742188,1295.673340 
	C711.669373,1281.490845 705.078796,1274.662109 691.082397,1274.547607 
	C668.122498,1274.359985 645.158386,1274.331909 622.199219,1274.561157 
	C608.533508,1274.697632 602.188049,1281.363281 602.137390,1295.036743 
	C602.052307,1317.997803 602.041016,1340.959717 602.137573,1363.920776 
	C602.195435,1377.679688 608.567261,1384.038330 622.209900,1384.074951 
	C646.169434,1384.139282 670.129333,1384.091064 695.877380,1384.062378 
M2777.854248,2623.126465 
	C2777.854248,2618.264404 2777.854248,2613.402344 2777.854248,2607.530518 
	C2789.228516,2607.530518 2799.336670,2607.530518 2809.383301,2607.530518 
	C2809.383301,2594.937256 2809.383301,2583.411377 2809.383301,2571.357666 
	C2774.122803,2571.357666 2739.336670,2571.357666 2704.167236,2571.357666 
	C2704.167236,2583.603027 2704.167236,2595.392090 2704.167236,2608.160889 
	C2714.794678,2608.160889 2724.937744,2608.160889 2735.752441,2608.160889 
	C2735.752441,2650.633789 2735.752441,2692.132568 2735.752441,2734.096924 
	C2749.996826,2734.096924 2763.517090,2734.096924 2777.854248,2734.096924 
	C2777.854248,2697.502930 2777.854248,2661.297363 2777.854248,2623.126465 
M2460.394043,2698.175781 
	C2444.906250,2697.924805 2429.418701,2697.673584 2413.167236,2697.409912 
	C2413.167236,2654.860840 2413.167236,2613.373779 2413.167236,2570.822021 
	C2405.823486,2570.822021 2399.245117,2570.822021 2392.666504,2570.822021 
	C2385.802734,2570.822021 2378.939209,2570.822021 2372.049316,2570.822021 
	C2372.049316,2626.116211 2372.049316,2680.149170 2372.049316,2734.031738 
	C2402.265381,2734.031738 2431.782715,2734.031738 2461.637451,2734.031738 
	C2461.637451,2722.207520 2461.637451,2710.916748 2460.394043,2698.175781 
M1528.566406,2669.000000 
	C1528.566406,2690.534912 1528.566406,2712.069824 1528.566406,2734.081543 
	C1542.913330,2734.081543 1556.377563,2734.081543 1570.051636,2734.081543 
	C1570.051636,2679.589111 1570.051636,2625.567139 1570.051636,2571.566162 
	C1556.002197,2571.566162 1542.558472,2571.566162 1528.566528,2571.566162 
	C1528.566528,2603.871094 1528.566528,2635.435547 1528.566406,2669.000000 
M728.645996,2643.000732 
	C728.645996,2619.159912 728.645996,2595.319092 728.645996,2570.822021 
	C720.830078,2570.822021 714.221619,2570.775879 707.614197,2570.835205 
	C700.760559,2570.896729 693.907837,2571.060791 687.029663,2571.180664 
	C687.029663,2626.106934 687.029663,2679.866211 687.029663,2734.073242 
	C700.958435,2734.073242 714.421143,2734.073242 728.645813,2734.073242 
	C728.645813,2704.055664 728.645813,2674.528320 728.645996,2643.000732 
M2870.143799,2633.000000 
	C2870.143799,2666.560547 2870.143799,2700.121094 2870.143799,2733.924316 
	C2884.650391,2733.924316 2898.091309,2733.924316 2911.699219,2733.924316 
	C2911.699219,2679.464111 2911.699219,2625.630371 2911.699219,2571.470703 
	C2897.717285,2571.470703 2884.233398,2571.470703 2870.143799,2571.470703 
	C2870.143799,2591.742188 2870.143799,2611.371094 2870.143799,2633.000000 
M705.011841,1116.826782 
	C703.138000,1109.948730 698.505737,1107.516968 691.574707,1107.637939 
	C676.940186,1107.893433 662.296631,1107.597290 647.659790,1107.773193 
	C638.899048,1107.878540 634.852966,1111.664795 634.647461,1120.559937 
	C634.317078,1134.858398 634.302917,1149.176147 634.639099,1163.474365 
	C634.887512,1174.038086 638.860229,1177.597778 649.554749,1177.703491 
	C662.528931,1177.831665 675.505432,1177.773438 688.480713,1177.729248 
	C701.987122,1177.683228 705.352722,1174.317749 705.433228,1160.449097 
	C705.514282,1146.477051 705.381165,1132.504028 705.011841,1116.826782 
z"/>
<path fill="#23572B" opacity="1.000000" stroke="none" 
	d="
M2185.980957,2464.185791 
	C2149.709717,2458.947754 2119.050293,2444.148193 2093.622314,2418.888672 
	C2075.973145,2401.356445 2064.208008,2380.536865 2058.089111,2356.297363 
	C2003.520142,2140.126221 1948.807617,1923.991333 1894.127563,1707.848145 
	C1893.239502,1704.337646 1892.229004,1700.858032 1890.013306,1697.322144 
	C1861.469604,1863.883301 1832.925903,2030.444580 1804.003296,2199.216309 
	C1801.492676,2194.100586 1799.953979,2191.202148 1798.619507,2188.212402 
	C1738.787720,2054.168457 1679.002197,1920.103760 1619.061279,1786.108521 
	C1616.481445,1780.341064 1615.893188,1775.100464 1617.096069,1768.844604 
	C1632.244507,1690.070923 1647.075073,1611.236206 1662.063232,1532.431641 
	C1670.582764,1487.637451 1678.974854,1442.816040 1687.950195,1398.112549 
	C1692.433838,1375.781128 1700.523804,1354.615723 1712.828247,1335.307861 
	C1735.340942,1299.981567 1767.386475,1281.711060 1809.564453,1281.787231 
	C1840.562012,1281.843262 1871.559814,1281.754272 1902.557373,1281.808350 
	C1958.957886,1281.906616 2007.412109,1318.768188 2021.999756,1373.180176 
	C2072.063721,1559.919556 2121.972656,1746.700684 2171.926270,1933.469604 
	C2182.158203,1971.725464 2192.317139,2010.000854 2202.545410,2048.257812 
	C2203.291748,2051.050537 2204.329834,2053.765869 2205.969482,2058.763916 
	C2207.650879,2053.951172 2208.832275,2051.161621 2209.608154,2048.263672 
	C2231.033691,1968.221436 2252.416016,1888.167725 2273.809814,1808.116943 
	C2312.557617,1663.129761 2351.255859,1518.129395 2390.082520,1373.163452 
	C2405.592285,1315.255005 2458.869385,1280.928223 2509.584961,1281.709595 
	C2540.574951,1282.187256 2571.579102,1281.727783 2602.576416,1281.815186 
	C2649.571777,1281.947632 2683.977783,1303.161743 2706.411377,1344.201660 
	C2716.596680,1362.834106 2721.872803,1383.060181 2725.760498,1403.767700 
	C2739.395264,1476.394287 2753.116211,1549.004639 2766.839844,1621.614502 
	C2771.043213,1643.854126 2775.192139,1666.106201 2779.664795,1688.292236 
	C2787.359375,1726.461060 2818.030029,1751.534180 2857.165283,1751.561646 
	C2967.156738,1751.638550 3077.148682,1751.703369 3187.139893,1751.534180 
	C3230.723145,1751.467163 3268.965332,1765.386841 3301.118164,1794.698242 
	C3336.697754,1827.133911 3355.268066,1868.047119 3355.472900,1916.039185 
	C3356.036377,2048.026855 3356.111084,2180.020020 3355.510254,2312.007324 
	C3355.127930,2395.947510 3292.359375,2465.305908 3209.117676,2475.481689 
	C3200.551025,2476.528809 3191.818359,2476.497070 3183.162842,2476.498779 
	C2939.181396,2476.549316 2695.199951,2476.539795 2451.218506,2476.539551 
	C2447.898926,2476.539551 2444.579590,2476.539307 2440.271240,2476.539307 
	C2440.271240,2466.644043 2439.575684,2457.062256 2440.377441,2447.607666 
	C2449.700928,2337.646240 2532.365479,2258.048584 2626.815186,2241.931885 
	C2641.512451,2239.424072 2656.602051,2238.169189 2671.514648,2238.135254 
	C2800.170654,2237.845215 2928.827881,2237.922607 3057.484619,2238.030518 
	C3072.070557,2238.042725 3085.134277,2234.213867 3096.319336,2224.836670 
	C3108.350830,2214.749756 3116.202637,2201.900146 3116.349609,2186.072021 
	C3116.794922,2138.091797 3117.453369,2090.079590 3116.170166,2042.129395 
	C3115.367188,2012.122437 3090.009033,1990.192749 3059.604492,1990.149170 
	C2986.276855,1990.044067 2912.948975,1990.126587 2839.621338,1990.108521 
	C2806.958008,1990.100464 2774.285645,1990.502808 2741.633057,1989.888306 
	C2683.420166,1988.792969 2635.143555,1965.825806 2597.182129,1921.747070 
	C2572.437744,1893.015259 2558.375000,1859.328247 2551.902100,1822.064819 
	C2544.211914,1777.794312 2535.770508,1733.653931 2527.585449,1689.470093 
	C2527.186768,1687.317871 2526.123047,1685.288818 2524.961426,1682.075195 
	C2511.766602,1731.520874 2498.887451,1779.732788 2486.036133,1827.952026 
	C2438.643555,2005.771606 2391.335449,2183.614014 2343.828613,2361.402832 
	C2329.107178,2416.496094 2280.593018,2458.029785 2223.656982,2464.143555 
	C2211.528076,2465.445801 2199.134033,2464.280518 2185.980957,2464.185791 
z"/>
<path fill="#23572C" opacity="1.000000" stroke="none" 
	d="
M729.999878,2466.114258 
	C653.335693,2466.067139 577.671326,2466.077148 502.007416,2465.885742 
	C494.380859,2465.866455 486.685364,2465.077637 479.147919,2463.863525 
	C464.766937,2461.547119 460.106873,2454.732910 463.714447,2440.812500 
	C465.873901,2432.479736 468.755920,2424.230469 472.262909,2416.367188 
	C507.380981,2337.627197 542.681213,2258.968506 577.960144,2180.300293 
	C625.906921,2073.384033 673.827209,1966.455933 721.924438,1859.607544 
	C726.695312,1849.009033 732.221436,1838.697388 738.096558,1828.661987 
	C746.427917,1814.431396 759.243835,1806.780762 775.735291,1805.793823 
	C788.695496,1805.018311 801.677307,1804.291016 814.654907,1804.182617 
	C843.318970,1803.943237 872.007385,1803.427124 900.646484,1804.306274 
	C927.201355,1805.121582 954.805603,1783.342285 954.674133,1750.830811 
	C954.370789,1675.833496 954.288574,1600.832642 954.709290,1525.836426 
	C954.896912,1492.389282 926.940979,1470.266357 901.356323,1471.780762 
	C900.048035,1471.858398 898.720032,1471.603882 896.065308,1471.402954 
	C899.602417,1463.401123 902.898010,1455.945679 906.591980,1447.588989 
	C910.099243,1447.588989 913.680847,1447.588989 917.262390,1447.588989 
	C953.928284,1447.587891 990.595032,1447.731934 1027.259888,1447.535645 
	C1052.500854,1447.400635 1072.802368,1431.973022 1078.878540,1408.336304 
	C1080.265625,1402.939941 1080.477173,1397.135498 1080.509644,1391.514771 
	C1080.668091,1364.182861 1080.524170,1336.849365 1080.631714,1309.517090 
	C1080.652588,1304.203857 1081.000977,1298.848389 1081.753052,1293.591675 
	C1082.985474,1284.978394 1086.372437,1281.404419 1095.107422,1279.863037 
	C1100.983521,1278.826050 1107.012817,1278.192993 1112.975098,1278.181763 
	C1175.307007,1278.065186 1237.639160,1278.110229 1299.971313,1278.114624 
	C1301.304077,1278.114746 1302.637085,1278.191528 1303.969727,1278.185303 
	C1315.801758,1278.130615 1324.300903,1283.101685 1329.199341,1294.191650 
	C1336.595947,1310.937256 1344.346558,1327.526367 1351.820312,1344.238403 
	C1507.824707,1693.089233 1663.818970,2041.944580 1819.768433,2390.820068 
	C1825.064209,2402.667236 1830.044678,2414.663574 1834.833984,2426.725098 
	C1836.911255,2431.956299 1838.611572,2437.438965 1839.638916,2442.964600 
	C1841.911865,2455.189453 1837.667358,2461.397705 1825.663330,2463.854248 
	C1820.785278,2464.852539 1815.783203,2465.361572 1810.810669,2465.747314 
	C1806.165771,2466.107422 1801.485352,2466.098633 1796.820557,2466.099609 
	C1710.489014,2466.117432 1624.157227,2466.162598 1537.825928,2466.031982 
	C1529.533447,2466.019287 1521.216064,2465.122803 1512.957153,2464.210938 
	C1501.530518,2462.950439 1492.996582,2456.865479 1487.597290,2446.886963 
	C1483.331299,2439.002930 1479.398315,2430.883301 1476.028076,2422.579834 
	C1461.883911,2387.732666 1448.035156,2352.765137 1434.005493,2317.871338 
	C1431.523804,2311.698730 1428.667358,2305.677490 1426.032593,2299.565186 
	C1418.354980,2281.754150 1404.427490,2273.092529 1385.446289,2272.178711 
	C1372.470337,2271.553955 1359.473755,2271.014404 1346.486572,2271.018555 
	C1237.494263,2271.054199 1128.501831,2271.211914 1019.509521,2271.362061 
	C988.845520,2271.404297 958.179810,2271.388916 927.518921,2271.746338 
	C919.904297,2271.834961 912.222900,2272.822266 904.718872,2274.197021 
	C893.761963,2276.204346 884.698181,2281.837402 879.057312,2291.595947 
	C874.241882,2299.926270 869.757507,2308.543213 866.109924,2317.436279 
	C852.594299,2350.388428 839.563843,2383.539307 826.169373,2416.541748 
	C822.795593,2424.854492 819.012390,2433.028564 814.946838,2441.027100 
	C807.896484,2454.897705 796.231445,2462.725342 780.877258,2463.918945 
	C764.294739,2465.207520 747.629150,2465.427979 729.999878,2466.114258 
M1039.607788,1989.041626 
	C1041.269287,1989.142334 1042.930664,1989.330933 1044.592163,1989.331299 
	C1117.539551,1989.348267 1190.487061,1989.381226 1263.434326,1989.293091 
	C1269.745239,1989.285400 1276.096558,1988.778320 1282.355957,1987.950806 
	C1292.529663,1986.606201 1295.910156,1982.012329 1293.500244,1972.193726 
	C1291.843506,1965.442749 1289.339355,1958.858887 1286.759521,1952.381470 
	C1252.794922,1867.103394 1218.758911,1781.853638 1184.717651,1696.606201 
	C1176.453613,1675.911133 1168.203125,1655.209351 1159.722656,1634.602783 
	C1157.785645,1629.896240 1156.072266,1624.644775 1150.577026,1622.335815 
	C1144.583496,1626.421265 1142.503784,1632.549927 1140.123169,1638.292114 
	C1130.951904,1660.413818 1121.975220,1682.616821 1113.007812,1704.822510 
	C1080.376221,1785.626221 1047.725586,1866.422241 1015.248474,1947.287964 
	C1012.042786,1955.269775 1009.348633,1963.575195 1007.555542,1971.973511 
	C1005.739929,1980.477417 1008.545105,1984.691895 1016.985474,1986.609863 
	C1023.735291,1988.143555 1030.813110,1988.233887 1039.607788,1989.041626 
M1211.663330,1431.025635 
	C1211.663940,1440.010254 1211.564209,1448.996338 1211.691772,1457.979126 
	C1211.836670,1468.189087 1215.437866,1471.980957 1225.357544,1472.072632 
	C1240.996094,1472.217163 1256.637939,1472.218872 1272.276489,1472.074585 
	C1281.675415,1471.987915 1285.830933,1468.052124 1285.944092,1458.901733 
	C1286.141724,1442.931519 1286.141479,1426.955200 1285.942261,1410.985107 
	C1285.832886,1402.217529 1281.772827,1398.001465 1273.194580,1397.881104 
	C1256.892456,1397.652100 1240.582153,1397.642212 1224.280151,1397.876953 
	C1215.649292,1398.001099 1211.956665,1402.110718 1211.701904,1411.073730 
	C1211.531860,1417.058716 1211.665527,1423.052368 1211.663330,1431.025635 
M1084.987305,1570.291016 
	C1091.296021,1570.282959 1097.613037,1570.476440 1103.911255,1570.215454 
	C1111.548340,1569.899414 1114.794678,1566.830688 1114.953857,1559.135620 
	C1115.228638,1545.859863 1115.225342,1532.569824 1114.944214,1519.294189 
	C1114.780762,1511.574951 1111.508423,1508.316772 1103.941650,1508.179443 
	C1090.664429,1507.938232 1077.376343,1507.933472 1064.099487,1508.183716 
	C1056.496094,1508.326904 1053.229980,1511.561646 1053.060059,1519.283691 
	C1052.768188,1532.558960 1052.761719,1545.849487 1053.045776,1559.124756 
	C1053.211060,1566.849609 1056.443726,1569.894043 1064.091187,1570.214233 
	C1070.389160,1570.478027 1076.706421,1570.282837 1084.987305,1570.291016 
z"/>
<path fill="#3B6942" opacity="1.000000" stroke="none" 
	d="
M674.322571,1644.000000 
	C674.323059,1616.021118 674.165588,1589.040894 674.377258,1562.063599 
	C674.527710,1542.880615 685.511414,1528.845215 703.016174,1524.961060 
	C706.223206,1524.249634 709.614197,1524.140991 712.920654,1524.137817 
	C763.214600,1524.089355 813.508728,1524.060181 863.802673,1524.125000 
	C887.097961,1524.155029 902.088013,1538.901978 902.136902,1562.013184 
	C902.243958,1612.640015 902.244080,1663.267456 902.137817,1713.894287 
	C902.089172,1737.085327 887.192017,1751.768555 863.854065,1751.798828 
	C813.560120,1751.864136 763.265930,1751.859009 712.971985,1751.800659 
	C689.431152,1751.773438 674.513489,1736.799316 674.353577,1712.946655 
	C674.201721,1690.298828 674.321960,1667.648926 674.322571,1644.000000 
z"/>
<path fill="#3B6842" opacity="1.000000" stroke="none" 
	d="
M1000.058960,1394.849609 
	C995.598022,1395.329590 991.950073,1395.774780 988.301697,1395.778320 
	C939.332458,1395.825439 890.363098,1395.754395 841.394104,1395.857544 
	C831.046448,1395.879272 821.539856,1393.773315 813.605347,1386.797485 
	C805.091309,1379.311890 801.300903,1369.875488 801.356506,1358.468628 
	C801.539917,1320.826660 801.424377,1283.182983 801.424255,1245.540039 
	C801.424194,1231.881958 801.824646,1218.209595 801.334473,1204.569092 
	C800.584412,1183.697510 818.788513,1167.690796 837.885559,1167.834717 
	C889.183777,1168.221436 940.489746,1168.283325 991.786316,1167.801758 
	C1010.869202,1167.622681 1029.047607,1183.575195 1028.780029,1205.209473 
	C1028.149658,1256.169800 1028.625610,1307.143066 1028.553101,1358.110962 
	C1028.525879,1377.239746 1019.505127,1388.955200 1000.058960,1394.849609 
z"/>
<path fill="#668B6C" opacity="1.000000" stroke="none" 
	d="
M375.768677,1124.206543 
	C377.442444,1107.194336 384.797546,1100.079224 400.861023,1100.019409 
	C441.174469,1099.869263 481.489197,1099.867920 521.802612,1100.020020 
	C538.021179,1100.081299 548.683472,1109.818481 550.782532,1125.854858 
	C551.126770,1128.484863 551.204529,1131.164917 551.206360,1133.822021 
	C551.232056,1171.137451 551.212280,1208.452881 551.231384,1245.768311 
	C551.235535,1253.899658 550.335510,1261.736816 544.938416,1268.362793 
	C539.102295,1275.528076 531.487366,1279.342407 522.359131,1279.372192 
	C481.712433,1279.504517 441.062683,1279.641235 400.420746,1279.180908 
	C394.791290,1279.117065 388.833984,1276.420776 383.686584,1273.698608 
	C377.798279,1270.584595 375.086914,1265.214966 375.331757,1257.945679 
	C375.824921,1243.302490 375.564514,1228.630615 375.461212,1213.971680 
	C375.306366,1191.992676 374.920990,1170.014893 374.841736,1148.035767 
	C374.814117,1140.387207 375.404236,1132.736572 375.768677,1124.206543 
z"/>
<path fill="#EF6F3A" opacity="1.000000" stroke="none" 
	d="
M3122.056885,1220.768555 
	C3144.871582,1220.610474 3167.685791,1220.411865 3190.500732,1220.309937 
	C3203.732178,1220.250854 3216.963867,1220.347290 3231.117188,1221.377563 
	C3232.692383,1227.954956 3233.902588,1233.527100 3233.915039,1239.102051 
	C3234.050781,1300.420776 3234.044922,1361.740112 3233.914307,1423.058960 
	C3233.903809,1427.962402 3232.678467,1432.863281 3232.017578,1437.765259 
	C3203.908203,1437.883789 3175.798584,1438.015381 3147.689209,1438.112793 
	C3139.750000,1438.140259 3131.810547,1438.067871 3122.937988,1436.982910 
	C3122.022217,1364.205933 3122.039551,1292.487183 3122.056885,1220.768555 
z"/>
<path fill="#7B9C81" opacity="1.000000" stroke="none" 
	d="
M416.666870,1482.806274 
	C417.028351,1478.930664 417.168823,1475.915283 417.785339,1473.000732 
	C420.185913,1461.652100 428.639130,1453.902100 440.135895,1453.817871 
	C476.791199,1453.549316 513.451599,1453.494263 550.105835,1453.820923 
	C563.548950,1453.940674 572.852661,1464.293335 573.469055,1478.850952 
	C573.863403,1488.165405 573.554810,1497.509888 573.555359,1506.840820 
	C573.556824,1531.501465 573.616821,1556.162231 573.534424,1580.822510 
	C573.470093,1600.062378 563.827148,1609.773438 544.642700,1609.826172 
	C512.317566,1609.915161 479.992035,1609.875244 447.666718,1609.841797 
	C426.048584,1609.819580 416.825500,1600.633667 416.698120,1578.689209 
	C416.556915,1554.362671 416.665344,1530.034790 416.665070,1505.707397 
	C416.664978,1498.375854 416.664734,1491.044434 416.666870,1482.806274 
z"/>
<path fill="#EC583A" opacity="1.000000" stroke="none" 
	d="
M3232.944336,1437.906982 
	C3232.678467,1432.863281 3233.903809,1427.962402 3233.914307,1423.058960 
	C3234.044922,1361.740112 3234.050781,1300.420776 3233.915039,1239.102051 
	C3233.902588,1233.527100 3232.692383,1227.954956 3232.036133,1221.576416 
	C3255.512451,1220.616333 3278.991211,1220.425903 3302.470459,1220.320557 
	C3315.041748,1220.264160 3327.613770,1220.353882 3341.136230,1221.368652 
	C3342.724609,1227.585083 3343.903564,1232.809082 3343.916504,1238.036133 
	C3344.051758,1292.556763 3343.954590,1347.077881 3344.089600,1401.598511 
	C3344.100098,1405.794067 3345.382812,1409.986328 3346.073975,1414.180176 
	C3329.095947,1424.326904 3310.390381,1429.708008 3291.286377,1433.939087 
	C3272.358643,1438.131470 3253.144043,1438.556519 3232.944336,1437.906982 
z"/>
<path fill="#F2893A" opacity="1.000000" stroke="none" 
	d="
M3121.134766,1220.569946 
	C3122.039551,1292.487183 3122.022217,1364.205933 3122.010498,1436.845581 
	C3087.301025,1437.857422 3052.585938,1437.948364 3016.937988,1436.982422 
	C3016.003662,1381.735840 3016.156982,1327.545288 3015.910889,1273.356689 
	C3015.831299,1255.826050 3014.703369,1238.300049 3014.055176,1220.771973 
	C3035.877686,1220.608521 3057.700439,1220.398682 3079.523438,1220.298828 
	C3093.086182,1220.236694 3106.649414,1220.341553 3121.134766,1220.569946 
z"/>
<path fill="#1E3E21" opacity="1.000000" stroke="none" 
	d="
M962.061462,2648.130371 
	C959.144714,2637.929199 956.396851,2628.521484 953.648987,2619.113525 
	C953.246643,2619.219482 952.844360,2619.325439 952.442017,2619.431396 
	C952.442017,2657.467285 952.442017,2695.503174 952.442017,2734.053711 
	C939.718018,2734.053711 927.223877,2734.053711 914.562256,2734.053711 
	C914.562256,2679.694580 914.562256,2625.832764 914.562256,2571.397217 
	C932.472046,2571.397217 949.971191,2571.397217 968.308411,2571.397217 
	C978.860107,2606.178467 989.440186,2641.053467 1000.020325,2675.928711 
	C1000.545227,2675.888184 1001.070068,2675.847900 1001.594971,2675.807373 
	C1011.942749,2641.162354 1022.290527,2606.517090 1032.777588,2571.405762 
	C1050.522827,2571.405762 1068.037231,2571.405762 1085.540039,2571.405762 
	C1087.420166,2578.462158 1087.914429,2721.475830 1086.046631,2734.088867 
	C1073.917847,2734.088867 1061.712158,2734.088867 1048.902100,2734.088867 
	C1048.902100,2714.839844 1048.902100,2695.714844 1048.902100,2676.589844 
	C1048.902100,2657.469727 1048.902100,2638.349365 1048.902100,2619.229248 
	C1048.459351,2619.090088 1048.016724,2618.950928 1047.573975,2618.811768 
	C1036.621094,2657.229004 1025.668091,2695.645996 1014.674561,2734.205811 
	C1005.077454,2734.205811 996.169800,2734.205811 986.674988,2734.205811 
	C978.513306,2705.731201 970.371826,2677.327393 962.061462,2648.130371 
z"/>
<path fill="#F5A03B" opacity="1.000000" stroke="none" 
	d="
M3013.132324,1220.574463 
	C3014.703369,1238.300049 3015.831299,1255.826050 3015.910889,1273.356689 
	C3016.156982,1327.545288 3016.003662,1381.735840 3016.010254,1436.846191 
	C2988.632080,1437.857422 2961.248535,1437.947998 2932.933594,1436.980713 
	C2932.015381,1364.207275 2932.028564,1292.491821 2932.041504,1220.776367 
	C2958.764160,1220.643311 2985.487061,1220.510132 3013.132324,1220.574463 
z"/>
<path fill="#EA463B" opacity="1.000000" stroke="none" 
	d="
M3346.778320,1414.082520 
	C3345.382812,1409.986328 3344.100098,1405.794067 3344.089600,1401.598511 
	C3343.954590,1347.077881 3344.051758,1292.556763 3343.916504,1238.036133 
	C3343.903564,1232.809082 3342.724609,1227.585083 3342.054932,1221.566040 
	C3369.010742,1220.616455 3395.999023,1220.435059 3422.987061,1220.314941 
	C3436.618896,1220.254272 3450.251221,1220.304443 3463.826660,1220.304443 
	C3468.971436,1283.602417 3430.362549,1371.429199 3346.778320,1414.082520 
z"/>
<path fill="#1E3E21" opacity="1.000000" stroke="none" 
	d="
M3256.856445,2640.966553 
	C3257.145020,2668.920898 3257.435791,2696.875488 3257.717773,2724.829834 
	C3257.747559,2727.776611 3257.721924,2730.723633 3257.721924,2734.114746 
	C3244.245605,2734.114746 3231.351318,2734.114746 3218.049316,2734.114746 
	C3218.049316,2679.957520 3218.049316,2626.085938 3218.049316,2570.875732 
	C3229.031494,2570.875732 3239.901611,2570.570068 3250.727295,2571.128418 
	C3252.943604,2571.242676 3255.572266,2574.227051 3257.023926,2576.514893 
	C3265.579346,2590.000244 3273.835449,2603.675293 3282.207275,2617.277344 
	C3292.979980,2634.780029 3303.766357,2652.274170 3315.550293,2669.632568 
	C3316.869873,2653.249023 3316.055908,2636.969238 3316.054443,2620.706543 
	C3316.052734,2604.455566 3316.053955,2588.204346 3316.053955,2571.388184 
	C3328.955811,2571.388184 3341.743896,2571.388184 3355.114258,2571.388184 
	C3355.114258,2625.570557 3355.114258,2679.377441 3355.114258,2734.538086 
	C3344.110107,2734.538086 3332.911865,2734.833496 3321.754639,2734.284912 
	C3319.563721,2734.177490 3316.969727,2731.166992 3315.517090,2728.886719 
	C3302.287842,2708.117432 3289.273926,2687.211182 3276.189209,2666.350098 
	C3270.709229,2657.612793 3265.209717,2648.887939 3258.906738,2639.312012 
	C3257.681885,2639.299805 3257.269287,2640.133057 3256.856445,2640.966553 
z"/>
<path fill="#1E3E21" opacity="1.000000" stroke="none" 
	d="
M3090.363037,2571.526611 
	C3154.839111,2592.449951 3164.520020,2662.403564 3135.869141,2702.080322 
	C3099.611816,2752.291016 3021.401123,2749.304932 2989.624268,2696.125977 
	C2960.435303,2647.278076 2988.847168,2573.326416 3056.973389,2568.179443 
	C3067.981445,2567.347656 3078.922119,2568.072510 3090.363037,2571.526611 
M3082.076660,2608.335938 
	C3059.599365,2599.643311 3036.630127,2607.905029 3026.012451,2629.066162 
	C3017.660156,2645.711914 3018.105469,2662.681152 3027.491455,2678.769775 
	C3044.994141,2708.770508 3085.477051,2708.322510 3102.708740,2678.189453 
	C3116.647949,2653.813477 3108.195557,2623.477783 3082.076660,2608.335938 
z"/>
<path fill="#1E3E21" opacity="1.000000" stroke="none" 
	d="
M2227.114258,2737.464844 
	C2197.265869,2739.725830 2172.351318,2731.070557 2152.512207,2709.523926 
	C2129.678711,2684.725098 2126.099121,2655.454834 2136.169678,2624.798584 
	C2145.902588,2595.170898 2167.031006,2576.146973 2198.011230,2570.019531 
	C2232.778076,2563.143555 2262.815674,2572.322510 2285.657959,2600.166748 
	C2322.833496,2645.483887 2302.859375,2722.606445 2234.897461,2736.162842 
	C2232.614258,2736.618408 2230.310303,2736.970947 2227.114258,2737.464844 
M2197.632080,2695.961182 
	C2220.838623,2706.057861 2242.825195,2699.919922 2254.735352,2679.168457 
	C2265.247559,2660.852539 2264.899658,2642.000977 2253.277588,2624.346436 
	C2235.619385,2597.522461 2197.667969,2598.533203 2180.483643,2625.690430 
	C2169.329102,2643.318604 2168.769287,2678.261475 2197.632080,2695.961182 
z"/>
<path fill="#1E3E21" opacity="1.000000" stroke="none" 
	d="
M1452.607666,2694.452148 
	C1441.244507,2719.617676 1420.545288,2731.174805 1395.445801,2733.137939 
	C1370.356812,2735.100586 1344.994507,2733.568604 1319.156982,2733.568604 
	C1319.156982,2679.993164 1319.156982,2626.202148 1319.156982,2571.991455 
	C1320.142822,2571.665771 1321.359619,2570.906006 1322.569214,2570.917236 
	C1344.539185,2571.123779 1366.533691,2570.848389 1388.472046,2571.822510 
	C1433.262573,2573.810547 1455.660156,2606.121582 1459.541260,2639.823730 
	C1461.653687,2658.166992 1460.212158,2676.408936 1452.607666,2694.452148 
M1398.262695,2612.208984 
	C1386.362915,2606.393311 1373.876587,2607.845703 1361.114380,2608.511230 
	C1361.114380,2638.390381 1361.114380,2667.546387 1361.114380,2697.284180 
	C1369.809326,2697.284180 1378.128296,2698.129150 1386.211060,2697.106445 
	C1402.471436,2695.048340 1412.507324,2685.440918 1416.341675,2669.399658 
	C1418.782471,2659.187744 1418.831909,2648.977783 1416.765259,2638.729248 
	C1414.561768,2627.801514 1409.297119,2618.887451 1398.262695,2612.208984 
z"/>
<path fill="#F7B23B" opacity="1.000000" stroke="none" 
	d="
M2931.119385,1220.580322 
	C2932.028564,1292.491821 2932.015381,1364.207275 2932.005859,1436.842773 
	C2909.960693,1437.854126 2887.911865,1437.945312 2864.931641,1436.979980 
	C2864.011475,1364.203369 2864.022949,1292.483521 2864.034424,1220.763550 
	C2886.088623,1220.637085 2908.143066,1220.510742 2931.119385,1220.580322 
z"/>
<path fill="#1E3E21" opacity="1.000000" stroke="none" 
	d="
M2601.370605,2575.357666 
	C2602.629639,2573.272705 2603.851807,2571.055420 2605.120850,2571.028076 
	C2617.360352,2570.765137 2629.607422,2570.870605 2642.392578,2570.870605 
	C2642.658203,2574.283691 2643.027832,2576.848145 2643.031250,2579.413086 
	C2643.072266,2610.387939 2643.165771,2641.363770 2642.976807,2672.337402 
	C2642.934326,2679.298340 2642.527588,2686.390869 2641.132812,2693.185791 
	C2636.054932,2717.924072 2615.753662,2734.938477 2588.600098,2737.553711 
	C2577.903809,2738.584229 2567.339600,2737.560303 2557.034424,2734.267578 
	C2534.197021,2726.970703 2519.024902,2708.004150 2518.031006,2684.052979 
	C2517.327637,2667.093994 2517.696533,2650.089355 2517.659912,2633.104980 
	C2517.615967,2612.814453 2517.649902,2592.523926 2517.649902,2571.532227 
	C2531.639893,2571.532227 2545.069824,2571.532227 2559.184814,2571.532227 
	C2559.359131,2574.580322 2559.663818,2577.460938 2559.667236,2580.342041 
	C2559.702637,2610.317627 2559.571777,2640.294434 2559.790283,2670.268311 
	C2559.833252,2676.182373 2560.391113,2682.320068 2562.080078,2687.943848 
	C2564.994873,2697.649902 2572.270264,2701.557617 2583.125977,2700.565430 
	C2592.697510,2699.690674 2598.313965,2694.930908 2599.835449,2685.061035 
	C2600.945801,2677.857422 2601.257324,2670.476318 2601.296143,2663.171143 
	C2601.450684,2634.195312 2601.357178,2605.218262 2601.370605,2575.357666 
z"/>
<path fill="#F9C23B" opacity="1.000000" stroke="none" 
	d="
M2863.112061,1220.571533 
	C2864.022949,1292.483521 2864.011475,1364.203369 2864.003418,1436.843262 
	C2844.424316,1437.763184 2824.842285,1437.763184 2804.699463,1437.763184 
	C2801.636475,1425.782715 2798.628174,1414.016357 2795.995117,1400.643799 
	C2796.913330,1394.812866 2797.920654,1390.588989 2797.929688,1386.363159 
	C2798.050293,1331.157471 2798.029541,1275.951294 2798.044189,1220.745361 
	C2819.426025,1220.623413 2840.807861,1220.501465 2863.112061,1220.571533 
z"/>
<path fill="#1E3E21" opacity="1.000000" stroke="none" 
	d="
M1643.119141,2704.975098 
	C1661.117554,2660.174805 1678.776855,2616.064941 1696.631714,2571.466797 
	C1707.617920,2571.466797 1718.438965,2571.466797 1730.164917,2571.466797 
	C1751.516968,2625.128906 1772.982422,2679.075928 1794.797607,2733.901855 
	C1779.177734,2733.901855 1764.428345,2733.901855 1749.343506,2733.901855 
	C1746.777344,2726.636963 1744.240967,2719.456543 1741.479858,2711.639648 
	C1723.046265,2711.639648 1704.541870,2711.639648 1685.032593,2711.639648 
	C1682.301880,2718.856445 1679.408569,2726.503174 1676.568359,2734.009521 
	C1661.404053,2734.009521 1646.938843,2734.009521 1631.596802,2734.009521 
	C1635.528687,2724.044189 1639.154419,2714.854736 1643.119141,2704.975098 
M1711.804077,2627.343506 
	C1706.859253,2643.787109 1701.914307,2660.230469 1696.792114,2677.263672 
	C1708.468628,2677.263672 1718.896484,2677.263672 1730.176392,2677.263672 
	C1725.042358,2660.089600 1720.144653,2643.604004 1715.089111,2627.167236 
	C1714.887817,2626.512451 1713.186646,2626.318848 1711.804077,2627.343506 
z"/>
<path fill="#1E3E21" opacity="1.000000" stroke="none" 
	d="
M508.247711,2620.111816 
	C514.979309,2603.388428 521.464233,2587.392822 528.013977,2571.237793 
	C539.117676,2571.237793 549.686340,2571.237793 561.212158,2571.237793 
	C582.613892,2625.017822 604.096191,2679.000244 625.932739,2733.873047 
	C610.619019,2733.873047 596.176147,2733.873047 580.536255,2733.873047 
	C578.135498,2727.101074 575.514893,2719.708496 572.668091,2711.678223 
	C554.173279,2711.678223 535.680847,2711.678223 516.333740,2711.678223 
	C513.587219,2718.695801 510.705963,2726.057373 507.617554,2733.948486 
	C493.178650,2733.948486 478.684814,2733.948486 462.702240,2733.948486 
	C477.956146,2695.860352 492.978607,2658.349854 508.247711,2620.111816 
M545.767029,2625.333740 
	C545.348206,2625.114502 544.946655,2624.812256 544.501465,2624.719238 
	C544.340271,2624.685791 543.959900,2625.116699 543.872681,2625.395996 
	C538.545288,2642.446289 533.238098,2659.502686 527.700989,2677.291016 
	C539.234253,2677.291016 549.715515,2677.291016 561.316467,2677.291016 
	C556.148926,2660.085693 551.116333,2643.329834 545.767029,2625.333740 
z"/>
<path fill="#1E3E21" opacity="1.000000" stroke="none" 
	d="
M2043.386963,2733.818359 
	C2027.999756,2738.810547 2013.147095,2739.059570 1998.257935,2735.734375 
	C1971.732788,2729.810547 1957.167480,2709.677734 1958.757080,2680.784668 
	C1972.187744,2680.784668 1985.687500,2680.784668 1999.471313,2680.784668 
	C2000.411743,2684.339355 2001.047485,2688.293213 2002.498657,2691.921143 
	C2006.100586,2700.925537 2014.672363,2704.700684 2023.796387,2701.680664 
	C2033.306885,2698.533203 2036.101929,2684.127686 2028.354492,2676.836670 
	C2025.755493,2674.390869 2022.367188,2672.628906 2019.087646,2671.092773 
	C2012.166504,2667.850098 2004.900269,2665.312012 1998.107422,2661.836182 
	C1990.736938,2658.064453 1983.096436,2654.359863 1976.704834,2649.219238 
	C1956.367310,2632.862793 1955.465698,2603.146729 1974.166382,2584.868652 
	C1994.645020,2564.852783 2031.348999,2562.117188 2054.423340,2578.980469 
	C2067.546143,2588.570312 2072.628906,2602.016357 2073.144043,2618.376465 
	C2059.400635,2618.376465 2046.194214,2618.376465 2032.494263,2618.376465 
	C2031.743286,2616.551514 2030.948608,2614.397217 2029.986084,2612.320801 
	C2026.160889,2604.068115 2017.250122,2600.781982 2009.138428,2604.583496 
	C2001.458496,2608.182617 2000.247681,2619.878174 2007.406738,2625.603027 
	C2011.511963,2628.885986 2016.373291,2631.322021 2021.123291,2633.677246 
	C2028.567139,2637.367432 2036.229980,2640.613281 2043.747070,2644.159668 
	C2046.448853,2645.434082 2049.041260,2646.960205 2051.609131,2648.496094 
	C2068.390625,2658.531738 2075.993896,2673.134521 2074.392334,2692.805908 
	C2072.870117,2711.499756 2063.897217,2724.631836 2046.866821,2732.343262 
	C2045.956177,2732.755371 2045.052490,2733.182129 2043.386963,2733.818359 
z"/>
<path fill="#1E3E21" opacity="1.000000" stroke="none" 
	d="
M1180.111206,2570.822266 
	C1204.023926,2570.822266 1226.956299,2570.822266 1251.074707,2570.822266 
	C1251.202271,2577.257080 1251.363892,2583.090088 1251.420898,2588.924561 
	C1251.478760,2594.860352 1251.433594,2600.797119 1251.433594,2607.789062 
	C1234.248169,2607.789062 1217.811890,2607.789062 1200.886719,2607.789062 
	C1200.886719,2616.671143 1200.886719,2624.473877 1200.886719,2633.225586 
	C1217.261353,2633.225586 1233.136841,2633.225586 1249.417236,2633.225586 
	C1249.417236,2645.680908 1249.417236,2657.190186 1249.417236,2669.596680 
	C1233.389893,2669.596680 1217.559326,2669.596680 1201.047363,2669.596680 
	C1201.047363,2679.221191 1201.047363,2687.959717 1201.047363,2697.502930 
	C1217.551636,2697.502930 1233.748657,2697.502930 1250.685791,2697.502930 
	C1250.685791,2710.018311 1250.685791,2721.768555 1250.685791,2734.052734 
	C1220.806152,2734.052734 1190.966187,2734.052734 1160.633545,2734.052734 
	C1160.633545,2679.974365 1160.633545,2626.166260 1160.633545,2571.090332 
	C1166.766968,2571.001221 1172.948975,2570.911621 1180.111206,2570.822266 
z"/>
<path fill="#91AC96" opacity="1.000000" stroke="none" 
	d="
M694.983215,1384.076172 
	C670.129333,1384.091064 646.169434,1384.139282 622.209900,1384.074951 
	C608.567261,1384.038330 602.195435,1377.679688 602.137573,1363.920776 
	C602.041016,1340.959717 602.052307,1317.997803 602.137390,1295.036743 
	C602.188049,1281.363281 608.533508,1274.697632 622.199219,1274.561157 
	C645.158386,1274.331909 668.122498,1274.359985 691.082397,1274.547607 
	C705.078796,1274.662109 711.669373,1281.490845 711.742188,1295.673340 
	C711.859985,1318.634155 711.862793,1341.596558 711.735962,1364.557251 
	C711.674011,1375.782959 707.052795,1381.229126 694.983215,1384.076172 
z"/>
<path fill="#1E3E21" opacity="1.000000" stroke="none" 
	d="
M2777.854248,2624.109375 
	C2777.854248,2661.297363 2777.854248,2697.502930 2777.854248,2734.096924 
	C2763.517090,2734.096924 2749.996826,2734.096924 2735.752441,2734.096924 
	C2735.752441,2692.132568 2735.752441,2650.633789 2735.752441,2608.160889 
	C2724.937744,2608.160889 2714.794678,2608.160889 2704.167236,2608.160889 
	C2704.167236,2595.392090 2704.167236,2583.603027 2704.167236,2571.357666 
	C2739.336670,2571.357666 2774.122803,2571.357666 2809.383301,2571.357666 
	C2809.383301,2583.411377 2809.383301,2594.937256 2809.383301,2607.530518 
	C2799.336670,2607.530518 2789.228516,2607.530518 2777.854248,2607.530518 
	C2777.854248,2613.402344 2777.854248,2618.264404 2777.854248,2624.109375 
z"/>
<path fill="#1E3E21" opacity="1.000000" stroke="none" 
	d="
M2461.015625,2698.900879 
	C2461.637451,2710.916748 2461.637451,2722.207520 2461.637451,2734.031738 
	C2431.782715,2734.031738 2402.265381,2734.031738 2372.049316,2734.031738 
	C2372.049316,2680.149170 2372.049316,2626.116211 2372.049316,2570.822021 
	C2378.939209,2570.822021 2385.802734,2570.822021 2392.666504,2570.822021 
	C2399.245117,2570.822021 2405.823486,2570.822021 2413.167236,2570.822021 
	C2413.167236,2613.373779 2413.167236,2654.860840 2413.167236,2697.409912 
	C2429.418701,2697.673584 2444.906250,2697.924805 2461.015625,2698.900879 
z"/>
<path fill="#FBD53F" opacity="1.000000" stroke="none" 
	d="
M2797.121094,1220.552490 
	C2798.029541,1275.951294 2798.050293,1331.157471 2797.929688,1386.363159 
	C2797.920654,1390.588989 2796.913330,1394.812866 2795.992676,1399.859375 
	C2791.008789,1384.734619 2785.956543,1368.901001 2781.888672,1352.818359 
	C2773.276123,1318.767944 2757.723145,1288.829102 2732.079346,1264.392212 
	C2712.413574,1245.651855 2689.578857,1232.486328 2663.780029,1224.279419 
	C2661.248291,1223.474121 2658.695557,1222.731445 2656.179199,1221.881714 
	C2655.654785,1221.704712 2655.247070,1221.181885 2654.203369,1220.359619 
	C2701.924072,1220.359619 2749.061279,1220.359619 2797.121094,1220.552490 
z"/>
<path fill="#1E3E21" opacity="1.000000" stroke="none" 
	d="
M1528.566406,2668.000000 
	C1528.566528,2635.435547 1528.566528,2603.871094 1528.566528,2571.566162 
	C1542.558472,2571.566162 1556.002197,2571.566162 1570.051636,2571.566162 
	C1570.051636,2625.567139 1570.051636,2679.589111 1570.051636,2734.081543 
	C1556.377563,2734.081543 1542.913330,2734.081543 1528.566406,2734.081543 
	C1528.566406,2712.069824 1528.566406,2690.534912 1528.566406,2668.000000 
z"/>
<path fill="#1E3E21" opacity="1.000000" stroke="none" 
	d="
M728.645874,2644.000977 
	C728.645813,2674.528320 728.645813,2704.055664 728.645813,2734.073242 
	C714.421143,2734.073242 700.958435,2734.073242 687.029663,2734.073242 
	C687.029663,2679.866211 687.029663,2626.106934 687.029663,2571.180664 
	C693.907837,2571.060791 700.760559,2570.896729 707.614197,2570.835205 
	C714.221619,2570.775879 720.830078,2570.822021 728.645996,2570.822021 
	C728.645996,2595.319092 728.645996,2619.159912 728.645874,2644.000977 
z"/>
<path fill="#1E3E21" opacity="1.000000" stroke="none" 
	d="
M2870.143799,2632.000000 
	C2870.143799,2611.371094 2870.143799,2591.742188 2870.143799,2571.470703 
	C2884.233398,2571.470703 2897.717285,2571.470703 2911.699219,2571.470703 
	C2911.699219,2625.630371 2911.699219,2679.464111 2911.699219,2733.924316 
	C2898.091309,2733.924316 2884.650391,2733.924316 2870.143799,2733.924316 
	C2870.143799,2700.121094 2870.143799,2666.560547 2870.143799,2632.000000 
z"/>
<path fill="#91AC96" opacity="1.000000" stroke="none" 
	d="
M705.176880,1117.679077 
	C705.381165,1132.504028 705.514282,1146.477051 705.433228,1160.449097 
	C705.352722,1174.317749 701.987122,1177.683228 688.480713,1177.729248 
	C675.505432,1177.773438 662.528931,1177.831665 649.554749,1177.703491 
	C638.860229,1177.597778 634.887512,1174.038086 634.639099,1163.474365 
	C634.302917,1149.176147 634.317078,1134.858398 634.647461,1120.559937 
	C634.852966,1111.664795 638.899048,1107.878540 647.659790,1107.773193 
	C662.296631,1107.597290 676.940186,1107.893433 691.574707,1107.637939 
	C698.505737,1107.516968 703.138000,1109.948730 705.176880,1117.679077 
z"/>
<path fill="#FDFEFD" opacity="1.000000" stroke="none" 
	d="
M1038.676514,1989.003174 
	C1030.813110,1988.233887 1023.735291,1988.143555 1016.985474,1986.609863 
	C1008.545105,1984.691895 1005.739929,1980.477417 1007.555542,1971.973511 
	C1009.348633,1963.575195 1012.042786,1955.269775 1015.248474,1947.287964 
	C1047.725586,1866.422241 1080.376221,1785.626221 1113.007812,1704.822510 
	C1121.975220,1682.616821 1130.951904,1660.413818 1140.123169,1638.292114 
	C1142.503784,1632.549927 1144.583496,1626.421265 1150.577026,1622.335815 
	C1156.072266,1624.644775 1157.785645,1629.896240 1159.722656,1634.602783 
	C1168.203125,1655.209351 1176.453613,1675.911133 1184.717651,1696.606201 
	C1218.758911,1781.853638 1252.794922,1867.103394 1286.759521,1952.381470 
	C1289.339355,1958.858887 1291.843506,1965.442749 1293.500244,1972.193726 
	C1295.910156,1982.012329 1292.529663,1986.606201 1282.355957,1987.950806 
	C1276.096558,1988.778320 1269.745239,1989.285400 1263.434326,1989.293091 
	C1190.487061,1989.381226 1117.539551,1989.348267 1044.592163,1989.331299 
	C1042.930664,1989.330933 1041.269287,1989.142334 1038.676514,1989.003174 
z"/>
<path fill="#FDFEFD" opacity="1.000000" stroke="none" 
	d="
M1211.663330,1430.033936 
	C1211.665527,1423.052368 1211.531860,1417.058716 1211.701904,1411.073730 
	C1211.956665,1402.110718 1215.649292,1398.001099 1224.280151,1397.876953 
	C1240.582153,1397.642212 1256.892456,1397.652100 1273.194580,1397.881104 
	C1281.772827,1398.001465 1285.832886,1402.217529 1285.942261,1410.985107 
	C1286.141479,1426.955200 1286.141724,1442.931519 1285.944092,1458.901733 
	C1285.830933,1468.052124 1281.675415,1471.987915 1272.276489,1472.074585 
	C1256.637939,1472.218872 1240.996094,1472.217163 1225.357544,1472.072632 
	C1215.437866,1471.980957 1211.836670,1468.189087 1211.691772,1457.979126 
	C1211.564209,1448.996338 1211.663940,1440.010254 1211.663330,1430.033936 
z"/>
<path fill="#FDFEFD" opacity="1.000000" stroke="none" 
	d="
M1084.001221,1570.291016 
	C1076.706421,1570.282837 1070.389160,1570.478027 1064.091187,1570.214233 
	C1056.443726,1569.894043 1053.211060,1566.849609 1053.045776,1559.124756 
	C1052.761719,1545.849487 1052.768188,1532.558960 1053.060059,1519.283691 
	C1053.229980,1511.561646 1056.496094,1508.326904 1064.099487,1508.183716 
	C1077.376343,1507.933472 1090.664429,1507.938232 1103.941650,1508.179443 
	C1111.508423,1508.316772 1114.780762,1511.574951 1114.944214,1519.294189 
	C1115.225342,1532.569824 1115.228638,1545.859863 1114.953857,1559.135620 
	C1114.794678,1566.830688 1111.548340,1569.899414 1103.911255,1570.215454 
	C1097.613037,1570.476440 1091.296021,1570.282959 1084.001221,1570.291016 
z"/>
<path fill="#FFFFFF" opacity="1.000000" stroke="none" 
	d="
M3257.281494,2640.612305 
	C3257.269287,2640.133057 3257.681885,2639.299805 3258.303223,2638.982422 
	C3258.243408,2639.751709 3257.975098,2640.004639 3257.281494,2640.612305 
z"/>
<path fill="#FDFEFD" opacity="1.000000" stroke="none" 
	d="
M3082.758789,2608.687988 
	C3108.195557,2623.477783 3116.647949,2653.813477 3102.708740,2678.189453 
	C3085.477051,2708.322510 3044.994141,2708.770508 3027.491455,2678.769775 
	C3018.105469,2662.681152 3017.660156,2645.711914 3026.012451,2629.066162 
	C3036.630127,2607.905029 3059.599365,2599.643311 3082.758789,2608.687988 
z"/>
<path fill="#FDFEFD" opacity="1.000000" stroke="none" 
	d="
M2196.953125,2695.607666 
	C2168.769287,2678.261475 2169.329102,2643.318604 2180.483643,2625.690430 
	C2197.667969,2598.533203 2235.619385,2597.522461 2253.277588,2624.346436 
	C2264.899658,2642.000977 2265.247559,2660.852539 2254.735352,2679.168457 
	C2242.825195,2699.919922 2220.838623,2706.057861 2196.953125,2695.607666 
z"/>
<path fill="#FDFEFD" opacity="1.000000" stroke="none" 
	d="
M1398.935181,2612.567871 
	C1409.297119,2618.887451 1414.561768,2627.801514 1416.765259,2638.729248 
	C1418.831909,2648.977783 1418.782471,2659.187744 1416.341675,2669.399658 
	C1412.507324,2685.440918 1402.471436,2695.048340 1386.211060,2697.106445 
	C1378.128296,2698.129150 1369.809326,2697.284180 1361.114380,2697.284180 
	C1361.114380,2667.546387 1361.114380,2638.390381 1361.114380,2608.511230 
	C1373.876587,2607.845703 1386.362915,2606.393311 1398.935181,2612.567871 
z"/>
<path fill="#FDFEFD" opacity="1.000000" stroke="none" 
	d="
M1711.994263,2626.626953 
	C1713.186646,2626.318848 1714.887817,2626.512451 1715.089111,2627.167236 
	C1720.144653,2643.604004 1725.042358,2660.089600 1730.176392,2677.263672 
	C1718.896484,2677.263672 1708.468628,2677.263672 1696.792114,2677.263672 
	C1701.914307,2660.230469 1706.859253,2643.787109 1711.994263,2626.626953 
z"/>
<path fill="#FDFEFD" opacity="1.000000" stroke="none" 
	d="
M545.925415,2625.953857 
	C551.116333,2643.329834 556.148926,2660.085693 561.316467,2677.291016 
	C549.715515,2677.291016 539.234253,2677.291016 527.700989,2677.291016 
	C533.238098,2659.502686 538.545288,2642.446289 543.872681,2625.395996 
	C543.959900,2625.116699 544.340271,2624.685791 544.501465,2624.719238 
	C544.946655,2624.812256 545.348206,2625.114502 545.925415,2625.953857 
z"/>
</svg>